HIERARCHY
ROOT hip
{
	OFFSET 0.000000 0.000000 0.000000 
	CHANNELS 6 Xposition Yposition Zposition Xrotation Zrotation Yrotation
	JOINT abdomen
	{
		OFFSET 0.000000 3.402643 0.000000 
		CHANNELS 3 Xrotation Zrotation Yrotation
		JOINT chest
		{
			OFFSET 0.000000 8.438565 -0.680529 
			CHANNELS 3 Xrotation Zrotation Yrotation
			JOINT neck
			{
				OFFSET 0.000000 10.207942 -0.272212 
				CHANNELS 3 Xrotation Zrotation Yrotation
				JOINT head
				{
					OFFSET 0.000000 3.130431 0.000000 
					CHANNELS 3 Xrotation Zrotation Yrotation
					End Site
					{
						OFFSET 0.000000 3.130435 0.000000 
					}
				}
			}
			JOINT lCollar
			{
				OFFSET 3.470700 6.669187 -0.816635 
				CHANNELS 3 Yrotation Zrotation Xrotation
				JOINT lShldr
				{
					OFFSET 3.198488 0.000000 0.000000 
					CHANNELS 3 Zrotation Yrotation Xrotation
					JOINT lForeArm
					{
						OFFSET 10.139888 0.000000 0.000000 
						CHANNELS 3 Yrotation Zrotation Xrotation
						JOINT lHand
						{
							OFFSET 8.370511 0.000000 0.000000 
							CHANNELS 3 Zrotation Yrotation Xrotation
							End Site
							{
								OFFSET 4.083176 0.000000 0.000000 
							}
						}
					}
				}
			}
			JOINT rCollar
			{
				OFFSET -3.470700 6.669187 -0.816635 
				CHANNELS 3 Yrotation Zrotation Xrotation
				JOINT rShldr
				{
					OFFSET -3.198488 0.000000 0.000000 
					CHANNELS 3 Zrotation Yrotation Xrotation
					JOINT rForeArm
					{
						OFFSET -10.139888 0.000000 0.000000 
						CHANNELS 3 Yrotation Zrotation Xrotation
						JOINT rHand
						{
							OFFSET -8.370511 0.000000 0.000000 
							CHANNELS 3 Zrotation Yrotation Xrotation
							End Site
							{
								OFFSET -4.083176 0.000000 0.000000 
							}
						}
					}
				}
			}
		}
	}
	JOINT lThigh
	{
		OFFSET 5.308129 -1.633274 1.361059 
		CHANNELS 3 Xrotation Zrotation Yrotation
		JOINT lShin
		{
			OFFSET -2.041588 -20.007561 0.000000 
			CHANNELS 3 Xrotation Zrotation Yrotation
			JOINT lFoot
			{
				OFFSET 0.000000 -19.190928 -1.224953 
				CHANNELS 3 Xrotation Yrotation Zrotation
				End Site
				{
					OFFSET 0.000000 -2.449906 4.627600 
				}
			}
		}
	}
	JOINT rThigh
	{
		OFFSET -5.308129 -1.633274 1.361059 
		CHANNELS 3 Xrotation Zrotation Yrotation
		JOINT rShin
		{
			OFFSET 2.041588 -20.007561 0.000000 
			CHANNELS 3 Xrotation Zrotation Yrotation
			JOINT rFoot
			{
				OFFSET 0.000000 -19.190928 -1.224953 
				CHANNELS 3 Xrotation Yrotation Zrotation
				End Site
				{
					OFFSET 0.000000 -2.449906 4.627600 
				}
			}
		}
	}
}
MOTION
Frames: 20
Frame Time: 0.064668
0.624715 44.548733 -13.606573 13.738900 5.180320 23.374100 1.833231 11.181345 -0.804138 0.785670 4.792006 -0.344631 -4.607670 1.786480 -24.266300 5.768030 6.624110 -11.564600 2.000000 -2.000000 0.000000 -77.642601 -9.374360 -144.815994 65.420403 -0.271718 0.124380 0.189033 -0.169400 138.820007 -2.000000 2.000000 0.000000 -91.306396 139.819000 6.203720 -24.990499 0.338765 0.057761 -0.079432 0.068302 -162.117004 -13.127061 -6.653633 -4.450124 13.799578 1.703795 1.531595 -8.162043 -4.582887 -0.384091 -31.043079 -14.003523 4.085681 38.189167 -2.637146 -2.713205 -18.460558 -10.055284 -5.004114 
1.626546 44.456989 -14.746582 13.791300 5.330980 23.631399 1.412459 11.199041 1.293844 0.605340 4.799589 0.554505 -5.244320 2.885620 -25.511000 5.721180 7.034360 -12.085600 2.000000 -2.000000 0.000000 -76.465302 -7.701950 -148.470993 66.797401 -0.268714 0.125710 0.193392 -0.169778 137.257996 -2.000000 2.000000 0.000000 -85.855598 139.031006 7.436130 -25.293200 0.338458 0.058415 -0.080956 0.071453 -163.367004 -14.224162 -8.190969 -3.052916 14.455950 1.598984 1.650866 -8.702558 -5.681355 -0.880737 -31.552458 -14.629272 8.271841 37.881435 -2.789224 -2.641750 -19.088348 -12.180362 -5.925489 
2.698477 44.534344 -15.904339 13.846500 5.168450 21.320900 1.650320 10.829882 2.190447 0.707280 4.641378 0.938763 -5.106680 3.322400 -25.098400 5.879810 7.228650 -11.844100 2.000000 -2.000000 0.000000 -77.139702 -7.937200 -148.899994 66.865799 -0.268564 0.125774 0.196394 -0.169969 136.184006 -2.000000 2.000000 0.000000 98.235397 41.003101 -170.561996 -26.279600 0.337434 0.060534 -0.081189 0.071918 -163.552994 -15.512169 -9.135834 -1.217614 15.153403 1.545730 1.754179 -8.517799 -5.117366 -0.875440 -32.228642 -14.140952 13.415812 35.626053 -2.975857 -2.470665 -18.531879 -14.755391 -6.641934 
3.789539 44.743687 -17.019857 14.289800 4.817640 17.231899 1.844150 10.770214 1.525860 0.790350 4.615807 0.653940 -3.260680 3.655690 -22.883900 6.439310 7.010230 -10.777200 2.000000 -2.000000 0.000000 -80.448196 -10.618100 -146.600998 64.785698 -0.273092 0.123742 0.193037 -0.169751 137.384995 -2.000000 2.000000 0.000000 98.075897 39.849602 -170.052994 -27.656601 0.335944 0.063463 -0.083281 0.075946 -165.173996 -16.333399 -9.539017 0.313287 13.812067 1.315271 1.754466 -7.171432 -3.152081 -0.303821 -34.089714 -13.415742 17.146358 32.920586 -3.105825 -2.290509 -14.822143 -17.438751 -6.262121 
4.860943 44.994270 -18.096394 14.455700 3.764030 11.741500 2.075290 10.426311 0.364580 0.889410 4.468419 0.156248 0.608720 6.174280 -19.302401 7.819150 7.232220 -8.982570 2.000000 -2.000000 0.000000 -83.311401 -16.610201 -139.334000 62.979000 -0.276962 0.121845 0.180867 -0.158601 141.759995 -2.000000 2.000000 0.000000 -86.279800 141.188004 2.834790 -29.404600 0.333952 0.067127 -0.082321 0.074134 -164.440994 -17.718660 -8.883164 0.894386 13.836778 1.275984 1.788665 -6.464884 0.568739 0.530776 -36.781738 -11.505923 17.333693 30.013071 -3.072317 -2.141943 -8.091177 -20.627424 -4.525251 
5.693380 45.115707 -18.998585 15.075000 2.640410 7.263790 2.639070 10.220028 -1.488346 1.131030 4.380012 -0.637862 8.993920 9.015900 -14.161700 10.858000 7.607810 -6.588810 2.000000 -2.000000 0.000000 -84.403702 -24.104900 -130.384003 65.430199 -0.271697 0.124389 0.157491 -0.162984 150.334000 -2.000000 2.000000 0.000000 86.363197 38.392899 170.059998 -29.248400 0.334135 0.066802 -0.083087 0.075585 -165.026993 -19.999714 -7.873713 1.423514 15.062966 1.316007 1.886294 -6.452102 2.921093 1.033538 -39.258686 -9.559082 14.470551 28.272312 -2.895113 -2.102663 -3.577024 -20.984777 -2.912307 
6.182816 45.104393 -19.665085 15.605200 1.975250 3.862120 2.042879 9.932545 -3.090542 0.875520 4.256805 -1.324518 17.475100 10.011900 -9.363380 13.437600 7.910970 -4.645800 2.000000 -2.000000 0.000000 -85.664001 -29.398399 -123.985001 69.922401 -0.261784 0.128459 0.145128 -0.148817 155.022003 -2.000000 2.000000 0.000000 77.624901 36.316700 155.453995 -29.228800 0.334157 0.066761 -0.082309 0.074109 -164.431000 -22.600033 -6.915341 2.225099 17.957764 1.468568 2.042880 -7.635729 4.140356 1.284055 -40.226830 -7.601247 11.876705 28.488268 -2.636429 -2.204189 -5.522245 -13.510763 -2.972296 
6.377677 45.081642 -20.092983 15.119800 1.055900 3.791270 3.119270 9.287929 -4.510576 1.336830 3.980541 -1.933104 22.740499 10.049100 -7.383170 15.381000 7.925610 -3.877570 2.000000 -2.000000 0.000000 -87.232597 -33.759499 -120.737999 74.004402 -0.252524 0.131473 0.135400 -0.154284 158.820999 -2.000000 2.000000 0.000000 69.105797 34.644402 142.225998 -30.556999 0.332578 0.069509 -0.079050 0.067484 -161.794998 -23.458004 -6.191354 1.417749 19.802580 1.595664 2.121750 -8.050965 3.844913 1.111434 -39.134720 -6.397910 8.509297 31.515821 -2.422314 -2.448411 -8.217153 -10.146760 -3.041371 
6.271999 45.077148 -20.465273 14.803000 1.869460 3.745950 3.870090 9.363683 -5.036178 1.658610 4.013007 -2.158362 25.096300 9.176870 -7.162320 16.367500 7.618400 -3.840890 2.000000 -2.000000 0.000000 -87.887802 -34.130798 -120.961998 77.109901 -0.245349 0.133320 0.129982 -0.141779 160.988007 -2.000000 2.000000 0.000000 63.774799 33.028400 133.785004 -30.928101 0.332126 0.070270 -0.077318 0.063616 -160.281006 -23.086231 -6.725280 1.791621 18.893705 1.544389 2.078444 -7.250285 3.036179 0.927707 -38.503506 -6.737936 6.452878 36.200386 -2.265161 -2.768718 -10.096349 -8.883675 -3.029606 
5.897746 45.143463 -20.850031 14.887600 1.434570 3.848250 3.556980 9.108036 -4.689069 1.524420 3.903444 -2.009601 25.593901 9.725940 -8.073360 16.604799 7.639640 -4.350380 2.000000 -2.000000 0.000000 -86.658798 -30.481100 -123.016998 77.207603 -0.245121 0.133372 0.129741 -0.141651 161.085999 -2.000000 2.000000 0.000000 63.900101 32.462799 133.304993 -29.814800 0.333469 0.067978 -0.075740 0.059830 -158.815994 -23.619328 -5.856238 1.756388 18.705309 1.559628 2.056360 -6.706306 2.330099 0.829746 -37.120544 -6.496212 3.848203 38.948483 -2.094910 -2.966131 -11.589501 -8.935634 -3.225757 
5.201632 45.171608 -21.235914 14.943600 3.057260 4.370620 2.865590 9.701755 -3.654742 1.228110 4.157895 -1.566318 24.961201 10.578000 -9.681880 16.411501 7.760260 -5.201060 2.000000 -2.000000 0.000000 -85.297203 -23.622900 -128.098999 73.184097 -0.254401 0.130920 0.135326 -0.154249 158.850006 -2.000000 2.000000 0.000000 69.435303 32.984200 142.223007 -29.961300 0.333294 0.068281 -0.077448 0.063917 -160.397995 -22.547977 -6.764236 2.457608 15.524588 1.323615 1.923352 -4.622858 1.569221 0.849044 -35.862225 -8.481240 2.540660 41.911900 -2.039547 -3.130893 -13.827043 -9.963401 -3.825209 
4.146358 45.146034 -21.613594 14.912600 4.124350 5.648740 2.886590 10.708285 -2.119945 1.237110 4.589265 -0.908548 24.033400 11.493900 -11.799900 16.264601 7.793510 -6.240080 2.000000 -2.000000 0.000000 -84.098801 -16.616100 -137.169006 66.924400 -0.268435 0.125829 0.151548 -0.161011 152.570007 -2.000000 2.000000 0.000000 78.150398 34.566002 156.671005 -30.088200 0.333143 0.068543 -0.080993 0.071526 -163.395996 -22.106224 -7.006965 2.700973 13.650748 1.188484 1.843391 -3.191255 0.761153 0.872588 -33.329567 -9.780010 1.109308 42.181957 -2.089958 -3.104179 -16.041388 -11.487485 -4.729805 
2.764755 44.957386 -21.981838 14.897000 5.210460 8.327770 3.675910 11.302795 -0.457644 1.575390 4.844055 -0.196133 22.469900 12.448000 -14.363800 15.946400 7.707700 -7.397540 2.000000 -2.000000 0.000000 -82.698303 -11.610100 -149.410004 61.299400 -0.280506 0.119972 0.177575 -0.167829 142.951004 -2.000000 2.000000 0.000000 -93.209900 143.759003 -4.212500 -30.156601 0.333061 0.068684 -0.084290 0.077794 -165.925995 -21.753717 -7.513889 1.647021 11.972236 1.055844 1.752442 -1.623352 0.530792 0.955519 -30.581003 -10.560157 0.857383 40.072609 -2.257238 -2.938379 -19.387804 -9.068345 -4.594010 
1.225835 44.873089 -22.337950 14.969200 6.086710 9.485420 3.789730 11.855956 1.760647 1.624170 5.081124 0.754563 21.407400 13.231700 -16.810200 15.566400 7.527470 -8.521250 2.000000 -2.000000 0.000000 -81.508797 -7.352640 -163.011002 59.512199 -0.284213 0.117867 0.190094 -0.169503 138.440002 -2.000000 2.000000 0.000000 94.474197 36.954700 -168.263000 -30.058901 0.333178 0.068483 -0.083087 0.075585 -165.026993 -21.891022 -7.238136 0.096309 11.115934 1.051738 1.670026 -0.341765 1.351307 1.217513 -29.590561 -9.996849 0.626103 37.973076 -2.291590 -2.847782 -22.241066 -8.457643 -4.783453 
-0.214567 44.827984 -22.642723 15.158000 7.383440 10.002700 3.835580 12.536602 2.706606 1.643820 5.372829 1.159974 20.960899 14.588800 -18.216200 15.426300 7.790130 -9.211450 2.000000 -2.000000 0.000000 99.278397 -176.181000 8.045590 60.557201 -0.282053 0.119112 0.189169 -0.169413 138.772003 -2.000000 2.000000 0.000000 100.101997 37.168900 -159.460007 -29.756201 0.333538 0.067857 -0.077536 0.064118 -160.475998 -20.698654 -7.092484 -1.272988 7.728738 0.690960 1.507151 1.850834 2.632526 1.645565 -30.321098 -9.905912 1.297366 38.723721 -2.222643 -2.916389 -22.645317 -7.878746 -4.436852 
-1.330196 44.845970 -22.948507 15.003800 7.757070 10.500300 4.174870 12.937169 1.754851 1.789230 5.544501 0.752079 21.759899 15.193600 -18.479000 15.693800 7.830110 -9.399000 2.000000 -2.000000 0.000000 98.809502 -177.751007 6.860470 61.855999 -0.279337 0.120604 0.186776 -0.169157 139.630997 -2.000000 2.000000 0.000000 100.568001 36.201000 -158.945007 -32.246399 0.330478 0.072950 -0.078424 0.066117 -161.257996 -20.157839 -6.390223 -2.413272 6.736116 0.663416 1.401397 2.853635 4.454158 1.853523 -30.390726 -9.135145 1.264750 38.667141 -2.195091 -2.927788 -22.791759 -8.216585 -4.471689 
-2.002428 44.960220 -23.409431 15.089900 7.952250 9.149100 4.213580 12.502182 0.352323 1.805820 5.358078 0.150995 22.458700 15.360200 -18.034401 15.942200 7.889540 -9.234580 2.000000 -2.000000 0.000000 -82.760498 -4.402670 -166.923996 61.357899 -0.280383 0.120039 0.182003 -0.158770 141.350006 -2.000000 2.000000 0.000000 95.328598 35.493099 -165.449997 -33.896801 0.328329 0.076250 -0.078378 0.066017 -161.218994 -20.496113 -5.647668 -2.863889 8.271333 0.925945 1.424230 2.945601 6.757172 1.944312 -30.997177 -8.216145 1.673588 37.640259 -2.156460 -2.879312 -21.506845 -8.219715 -4.158929 
-2.261368 45.143967 -23.941015 15.201200 8.278450 6.479270 4.355050 12.038774 -1.230362 1.866450 5.159475 -0.527298 22.368299 15.048600 -17.079599 15.875900 7.977670 -8.776870 2.000000 -2.000000 0.000000 -85.634697 -10.764100 -155.710007 59.326698 -0.284595 0.117642 0.165994 -0.165371 147.179993 -2.000000 2.000000 0.000000 -93.727798 144.085999 1.870690 -33.545300 0.328795 0.075552 -0.078741 0.066814 -161.531006 -20.596830 -5.081328 -1.757384 11.772491 1.305452 1.555230 0.561726 7.397932 2.183880 -31.621256 -7.750146 1.366931 35.669125 -2.178015 -2.802058 -18.601114 -7.345021 -3.276821 
-2.182619 45.274540 -24.516636 15.403300 8.864710 3.779820 4.585140 11.368561 -3.113188 1.965060 4.872241 -1.334223 22.844700 14.152200 -15.673600 15.889900 7.795490 -8.079540 2.000000 -2.000000 0.000000 -88.099800 -19.717100 -140.149002 59.355999 -0.284534 0.117677 0.141067 -0.156882 156.593994 -2.000000 2.000000 0.000000 76.212898 38.288101 164.718002 -30.556999 0.332578 0.069509 -0.078322 0.065893 -161.169998 -20.622189 -4.978609 -0.751454 16.288252 1.683279 1.762195 -2.441060 6.041588 2.240995 -32.495239 -7.521569 2.249468 33.931171 -2.202329 -2.700004 -16.356709 -6.914905 -2.756469 
-1.828529 45.373623 -25.000704 15.233200 9.494870 1.478500 4.596550 10.858770 -5.238247 1.969950 4.653759 -2.244963 24.077999 13.985900 -13.967300 16.431601 8.074680 -7.346650 2.000000 -2.000000 0.000000 -90.070198 -29.145800 -124.946999 63.545399 -0.275755 0.122453 0.120173 -0.136132 165.031006 -2.000000 2.000000 0.000000 65.720703 40.832699 148.764008 -29.473000 0.333872 0.067269 -0.071908 0.059003 -154.792999 -19.587027 -5.008913 0.010715 19.877216 1.963084 1.885292 -4.294130 6.371918 2.388518 -32.994732 -7.700828 3.149550 32.751572 -2.230290 -2.625265 -14.418972 -6.469247 -2.353592 
